<svg width="261" height="203" viewBox="0 0 261 203" fill="none" xmlns="http://www.w3.org/2000/svg">
<path d="M133.418 0.125977L135.428 0.460938L139.112 2.4707L142.127 4.81543L144.137 6.49023L146.481 10.1748L146.816 11.1797L145.142 14.5293L142.797 16.874L139.782 18.8838L140.452 21.5635L142.797 26.2529L143.802 26.9229L144.472 28.5977L144.137 30.2725L140.117 35.6318L137.772 39.6514L133.418 44.0059L130.738 46.3506L132.078 48.3604L136.433 51.04L146.816 55.0596L152.176 57.7393L156.865 61.0889L160.215 64.1035L163.899 67.1182L172.608 74.4873L177.298 78.1719L182.322 81.8564L186.342 83.8662H188.352L192.371 81.5215L194.716 79.5117L197.061 76.832L201.415 72.8125L204.095 70.4678L201.415 69.7979L193.041 68.458L188.352 67.1182V65.7783L191.701 61.4238L193.376 60.084L196.726 59.0791L205.77 59.4141L213.139 59.749L215.148 57.0693L218.498 50.0352L222.518 41.3262L224.527 38.3115L226.872 36.3018L229.552 35.2969L233.571 34.627L237.591 34.292H243.62L244.625 34.9619L244.29 37.3066L238.261 49.0303L234.241 56.0645L229.887 64.4385L227.207 67.7881L225.197 69.4629L223.522 70.1328H213.809L211.799 71.4727L209.119 73.8174L206.774 76.4971L203.09 80.5166L195.051 89.8955L192.706 92.2402L189.691 94.25L188.687 94.585H185.672L180.312 91.9053L173.278 87.2158L169.929 84.8711L163.899 80.8516L158.205 76.832L152.511 73.4824L150.836 72.8125L150.166 74.4873L147.821 79.1768L142.797 93.915L140.452 100.949L137.438 112.673L138.107 114.348L140.787 116.692L146.146 119.372L159.88 126.071L167.584 130.091L175.288 134.78L183.327 140.14L188.017 143.489L192.371 147.174L197.396 151.528L211.799 165.932L214.479 168.276L229.217 183.015L230.892 186.364L231.896 189.379L233.571 191.389L235.246 190.719L238.261 187.704L240.94 185.359L244.96 181.675L249.984 177.99L256.349 174.641H258.358L260.033 175.646L259.363 177.32L256.014 181.675L252.329 186.029L248.31 190.049L245.965 192.729L239.936 198.758L235.916 201.772L232.901 202.777L230.892 202.442L224.862 198.423L217.493 194.738L214.144 191.724L211.799 189.044L207.109 184.02L203.09 179.33L199.405 175.311L194.381 169.951L188.687 164.257L186.007 161.912L182.657 158.897L177.298 154.543L170.264 149.854L164.234 146.504L158.875 143.824L152.846 141.145L146.816 139.135L144.137 138.465H141.792L139.112 140.14L137.438 142.819L136.433 146.839L135.093 155.548L133.418 168.611L133.083 176.985L132.078 182.345L130.068 186.364L128.394 187.704L126.384 188.709L123.034 189.044L118.01 187.704L110.976 185.359L105.951 183.35L101.597 181.34L90.8779 176.65L81.1641 172.296L67.4307 165.932L61.7363 162.917L61.0664 161.577L61.4014 160.572H60.7314L59.7266 159.567L58.3867 159.902L56.7119 162.582L53.6973 169.616L50.0127 177.655L48.0029 180.335L46.3281 181.34L42.9785 181.005L41.9736 179.665L42.3086 175.98L44.3184 169.281L46.998 161.242L51.0176 149.519L53.0273 147.174L54.3672 146.504H57.3818L66.0908 149.184L69.7754 149.854L75.8047 152.533L83.5088 156.553L89.873 159.902L100.927 165.262L109.301 167.941L112.65 168.611H114.66L116.67 167.606L117.005 163.922V153.538L116.335 143.154L115.33 132.436L112.985 119.707L110.641 106.309L107.291 89.8955L104.946 80.1816L102.602 75.8271L101.932 75.1572L99.9219 75.4922L93.8926 78.8418L86.1885 83.8662L79.4893 88.2207L71.7852 92.9102L63.7461 97.9346L57.0469 101.954L51.6875 104.969L45.3232 108.318H44.6533L45.3232 111.668L45.6582 112.673V115.353L44.3184 120.377L42.9785 123.392L46.6631 126.071L49.3428 127.746L50.0127 128.751L49.6777 130.761L46.998 136.12L43.3135 141.814L39.9639 146.504L38.2891 148.179L37.2842 148.514H34.9395L30.585 146.839L15.5117 139.135L8.14258 135.115L3.11816 131.766L0.773438 129.421L1.1084 127.411L5.46289 120.042L8.8125 115.018L11.8271 110.663L14.5068 108.988L17.5215 109.323L21.876 111.333L22.5459 109.993L25.2256 107.648L31.9248 104.634L33.2646 104.299H36.9492L40.2988 105.639L41.6387 104.969L45.3232 101.954L50.3477 97.5996L55.0371 94.25L60.3965 90.2305L64.416 86.8809L69.7754 82.8613L74.1299 79.1768L79.8242 74.8223L85.1836 70.4678L89.2031 67.4531L93.8926 63.7686L99.252 59.4141L104.276 55.7295L108.296 53.3848L112.315 52.0449L117.005 50.7051L122.364 48.3604L124.709 45.6807L122.699 43.3359L120.02 39.9863L118.01 36.6367L114.995 32.9521L112.65 29.6025L111.98 27.5928L113.32 27.9277V27.2578H114.325V26.5879H114.995L115.665 24.9131L118.345 19.5537L119.685 15.8691V11.1797L121.024 8.83496L122.699 7.49512L126.049 7.83008L133.083 9.16992H135.093L136.433 8.5L137.103 6.49023L136.768 4.81543L135.428 2.80566L133.753 1.13086L133.418 0.125977ZM127.724 54.7246L125.044 56.3994L123.704 58.0742L123.369 59.4141L124.709 63.4336L124.039 66.4482L120.689 73.4824L119.35 78.5068V82.5264L120.689 87.5508L123.034 93.915L125.044 97.2646L126.049 98.2695L128.059 97.5996V96.9297L129.063 96.5947L131.408 93.2451L135.428 84.5361L136.433 81.1865V76.1621L133.083 68.123L131.408 64.7734L131.743 63.4336L134.088 60.084L133.753 58.4092L131.408 55.7295L130.068 54.7246H127.724ZM34.6045 108.653L30.585 109.993L27.2354 112.338L25.5605 114.013L29.915 116.692L37.6191 121.047H38.959L41.6387 115.353L41.3037 113.008L39.2939 109.993L37.6191 108.653H34.6045ZM26.9004 123.392L25.2256 124.396L24.5557 125.736L24.8906 127.411L27.5703 128.751L29.5801 128.416L30.9199 127.411L30.585 125.401L28.9102 123.727L26.9004 123.392Z" fill="#2B5B8D"/>
</svg>
